<svg width="17" height="17" viewBox="0 0 17 17" fill="none" xmlns="http://www.w3.org/2000/svg">
<g clip-path="url(#clip0_66_345)">
<path fill-rule="evenodd" clip-rule="evenodd" d="M8.79755 2.22461C11.3749 2.22461 13.4642 4.31395 13.4642 6.89127C13.4642 7.74139 13.2375 8.53795 12.8398 9.22489C12.5745 9.68283 11.2271 12.0161 8.79755 16.2246C6.36792 12.0161 5.02053 9.68283 4.75536 9.22489C4.35755 8.53795 4.13086 7.74139 4.13086 6.89127C4.13086 4.31395 6.2202 2.22461 8.79752 2.22461M8.79755 4.89127C7.69298 4.89127 6.79755 5.7867 6.79755 6.89127C6.79755 7.99583 7.69298 8.89127 8.79755 8.89127C9.90211 8.89127 10.7975 7.99586 10.7975 6.89127C10.7975 5.7867 9.90214 4.89127 8.79755 4.89127Z" fill="#D6D1B3"/>
</g>
<defs>
<clipPath id="clip0_66_345">
<rect width="16" height="16" fill="white" transform="translate(0.797607 0.891602)"/>
</clipPath>
</defs>
</svg>
