<svg width="550" height="770" viewBox="0 0 550 770" fill="none" xmlns="http://www.w3.org/2000/svg">
<path d="M540.392 762.696L540.387 762.696C540.396 761.739 540.392 760.779 540.376 759.816C539.367 699.924 489.998 652.19 430.106 653.198C399.638 653.711 372.315 666.74 352.956 687.303C333.176 666.298 305.112 653.182 273.982 653.182C256.808 653.182 240.567 657.175 226.135 664.281C226.439 660.973 226.596 657.622 226.596 654.235C226.596 599.369 185.856 554.019 132.978 546.784C141.635 531.203 146.566 513.268 146.566 494.18C146.566 434.28 98.0079 385.72 38.1074 385.72C28.2697 385.72 18.7378 387.03 9.67676 389.485V6.63818L540.392 6.63818L540.392 762.696Z" fill="#794E2B"/>
</svg>
